<mxfile host="app.diagrams.net" agent="Mozilla/5.0 (Windows NT 10.0; Win64; x64) AppleWebKit/537.36 (KHTML, like Gecko) Chrome/134.0.0.0 Safari/537.36 OPR/119.0.0.0" version="27.1.5">
  <diagram name="Page-1" id="9j8rzI0Q0Yk6mjAZNXU2">
    <mxGraphModel dx="1516" dy="778" grid="1" gridSize="10" guides="1" tooltips="1" connect="1" arrows="1" fold="1" page="1" pageScale="1" pageWidth="850" pageHeight="1100" math="0" shadow="0">
      <root>
        <mxCell id="0" />
        <mxCell id="1" parent="0" />
        <mxCell id="Oc6gHpBObV_FsSlt6pgu-6" style="edgeStyle=orthogonalEdgeStyle;rounded=0;orthogonalLoop=1;jettySize=auto;html=1;entryX=0;entryY=0.5;entryDx=0;entryDy=0;" edge="1" parent="1" source="Oc6gHpBObV_FsSlt6pgu-1" target="Oc6gHpBObV_FsSlt6pgu-5">
          <mxGeometry relative="1" as="geometry" />
        </mxCell>
        <mxCell id="Oc6gHpBObV_FsSlt6pgu-1" value="User" style="shape=umlActor;verticalLabelPosition=bottom;verticalAlign=top;html=1;outlineConnect=0;" vertex="1" parent="1">
          <mxGeometry x="60" y="230" width="30" height="60" as="geometry" />
        </mxCell>
        <mxCell id="Oc6gHpBObV_FsSlt6pgu-13" value="" style="edgeStyle=orthogonalEdgeStyle;rounded=0;orthogonalLoop=1;jettySize=auto;html=1;" edge="1" parent="1" source="Oc6gHpBObV_FsSlt6pgu-5" target="Oc6gHpBObV_FsSlt6pgu-8">
          <mxGeometry relative="1" as="geometry" />
        </mxCell>
        <mxCell id="Oc6gHpBObV_FsSlt6pgu-5" value="Outlook" style="rounded=1;whiteSpace=wrap;html=1;" vertex="1" parent="1">
          <mxGeometry x="180" y="230" width="120" height="60" as="geometry" />
        </mxCell>
        <mxCell id="Oc6gHpBObV_FsSlt6pgu-15" style="edgeStyle=orthogonalEdgeStyle;rounded=0;orthogonalLoop=1;jettySize=auto;html=1;entryX=0;entryY=0.5;entryDx=0;entryDy=0;" edge="1" parent="1" source="Oc6gHpBObV_FsSlt6pgu-8" target="Oc6gHpBObV_FsSlt6pgu-9">
          <mxGeometry relative="1" as="geometry" />
        </mxCell>
        <mxCell id="Oc6gHpBObV_FsSlt6pgu-19" style="edgeStyle=orthogonalEdgeStyle;rounded=0;orthogonalLoop=1;jettySize=auto;html=1;entryX=1;entryY=0.5;entryDx=0;entryDy=0;" edge="1" parent="1" source="Oc6gHpBObV_FsSlt6pgu-8" target="Oc6gHpBObV_FsSlt6pgu-16">
          <mxGeometry relative="1" as="geometry" />
        </mxCell>
        <mxCell id="Oc6gHpBObV_FsSlt6pgu-20" style="edgeStyle=orthogonalEdgeStyle;rounded=0;orthogonalLoop=1;jettySize=auto;html=1;entryX=1;entryY=0.5;entryDx=0;entryDy=0;" edge="1" parent="1" source="Oc6gHpBObV_FsSlt6pgu-8" target="Oc6gHpBObV_FsSlt6pgu-17">
          <mxGeometry relative="1" as="geometry" />
        </mxCell>
        <mxCell id="Oc6gHpBObV_FsSlt6pgu-21" style="edgeStyle=orthogonalEdgeStyle;rounded=0;orthogonalLoop=1;jettySize=auto;html=1;entryX=1;entryY=0.5;entryDx=0;entryDy=0;" edge="1" parent="1" source="Oc6gHpBObV_FsSlt6pgu-8" target="Oc6gHpBObV_FsSlt6pgu-18">
          <mxGeometry relative="1" as="geometry" />
        </mxCell>
        <mxCell id="Oc6gHpBObV_FsSlt6pgu-25" style="edgeStyle=orthogonalEdgeStyle;rounded=0;orthogonalLoop=1;jettySize=auto;html=1;entryX=1;entryY=0.5;entryDx=0;entryDy=0;" edge="1" parent="1" source="Oc6gHpBObV_FsSlt6pgu-8" target="Oc6gHpBObV_FsSlt6pgu-23">
          <mxGeometry relative="1" as="geometry" />
        </mxCell>
        <mxCell id="Oc6gHpBObV_FsSlt6pgu-8" value="Add on" style="rounded=1;whiteSpace=wrap;html=1;" vertex="1" parent="1">
          <mxGeometry x="360" y="230" width="120" height="60" as="geometry" />
        </mxCell>
        <mxCell id="Oc6gHpBObV_FsSlt6pgu-9" value="" style="rounded=0;whiteSpace=wrap;html=1;" vertex="1" parent="1">
          <mxGeometry x="560" y="120" width="180" height="280" as="geometry" />
        </mxCell>
        <mxCell id="Oc6gHpBObV_FsSlt6pgu-10" value="LLM" style="rounded=1;whiteSpace=wrap;html=1;" vertex="1" parent="1">
          <mxGeometry x="590" y="150" width="120" height="60" as="geometry" />
        </mxCell>
        <mxCell id="Oc6gHpBObV_FsSlt6pgu-11" value="LLM" style="rounded=1;whiteSpace=wrap;html=1;" vertex="1" parent="1">
          <mxGeometry x="590" y="230" width="120" height="60" as="geometry" />
        </mxCell>
        <mxCell id="Oc6gHpBObV_FsSlt6pgu-12" value="LLM" style="rounded=1;whiteSpace=wrap;html=1;" vertex="1" parent="1">
          <mxGeometry x="590" y="310" width="120" height="60" as="geometry" />
        </mxCell>
        <mxCell id="Oc6gHpBObV_FsSlt6pgu-16" value="Summary" style="rounded=0;whiteSpace=wrap;html=1;" vertex="1" parent="1">
          <mxGeometry x="240" y="360" width="120" height="60" as="geometry" />
        </mxCell>
        <mxCell id="Oc6gHpBObV_FsSlt6pgu-17" value="AI reponse" style="rounded=0;whiteSpace=wrap;html=1;" vertex="1" parent="1">
          <mxGeometry x="240" y="430" width="120" height="60" as="geometry" />
        </mxCell>
        <mxCell id="Oc6gHpBObV_FsSlt6pgu-18" value="Filter" style="rounded=0;whiteSpace=wrap;html=1;" vertex="1" parent="1">
          <mxGeometry x="240" y="500" width="120" height="60" as="geometry" />
        </mxCell>
        <mxCell id="Oc6gHpBObV_FsSlt6pgu-22" value="AI models" style="text;html=1;align=center;verticalAlign=middle;whiteSpace=wrap;rounded=0;" vertex="1" parent="1">
          <mxGeometry x="620" y="80" width="60" height="30" as="geometry" />
        </mxCell>
        <mxCell id="Oc6gHpBObV_FsSlt6pgu-23" value="VIP" style="rounded=0;whiteSpace=wrap;html=1;" vertex="1" parent="1">
          <mxGeometry x="240" y="570" width="120" height="60" as="geometry" />
        </mxCell>
      </root>
    </mxGraphModel>
  </diagram>
</mxfile>
